<svg xmlns="http://www.w3.org/2000/svg" width="24" height="24" viewBox="0 0 24 24">
  <path fill="#BA382C" fill-rule="evenodd" d="M23.9939718,6.12351029 C23.9939718,5.38544879 23.9289746,4.65338778 23.7539821,3.93332778 C23.4369957,2.6232186 22.6920276,1.62313526 21.5740755,0.890074173 C21.0001001,0.516043004 20.3701271,0.284023669 19.697156,0.163013584 C19.1801781,0.0700058338 18.6592004,0.0280023335 18.133223,0.0130010834 C18.0932247,0.0100008334 18.0502265,0.00300025002 18.0092283,0 L5.98574351,0 C5.83375002,0.0100008334 5.68275649,0.0170014168 5.530763,0.0260021668 C4.78379501,0.0690057505 4.04082685,0.149012418 3.33785697,0.427035586 C2.00191422,0.957079757 1.03795552,1.8791566 0.472979732,3.20726727 C0.280987959,3.65530461 0.180992244,4.13234436 0.109995287,4.61538462 C0.0539976862,5.00741728 0.0219990573,5.40045004 0.00999957151,5.79548296 C0.00999957151,5.82748562 0.00299987145,5.85748812 0,5.88849071 L0,18.1125094 C0.00999957151,18.252521 0.0169992716,18.395533 0.0269988431,18.5365447 C0.0769967006,19.3516126 0.180992244,20.1606801 0.523977547,20.9097425 C1.1739497,22.3298608 2.26190308,23.2629386 3.75783897,23.711976 C4.17782098,23.8389866 4.61380229,23.8989916 5.05078357,23.939995 C5.60575979,23.9929994 6.16073601,24 6.71771214,24 L17.7472395,24 C18.272217,24 18.7951946,23.9659972 19.3171722,23.8999917 C20.140137,23.7939828 20.9141038,23.5499625 21.6130739,23.0899242 C22.4530379,22.5368781 23.0850108,21.8028169 23.4929933,20.8817401 C23.6789853,20.4617051 23.7859808,20.0116676 23.8629775,19.5576298 C23.9759726,18.8825735 24.0009715,18.1995166 23.9999716,17.5174598 C23.9979717,13.7171431 23.9999716,9.92182682 23.9969717,6.12351029 L23.9939718,6.12351029 Z M17.5712471,10.1138428 L17.5712471,15.8263189 C17.5712471,16.2433536 17.5132495,16.6533878 17.3272575,17.0324194 C17.0372699,17.6224685 16.5672901,17.9944995 15.939317,18.1725144 C15.589332,18.2725227 15.2333472,18.3295275 14.8693628,18.3455288 C13.9194035,18.3905325 13.0964388,17.7454788 12.9264461,16.8094008 C12.7844522,16.0363364 13.1534364,15.1852654 13.9644016,14.7872323 C14.2873878,14.6272189 14.6343729,14.5372114 14.982358,14.4632053 C15.3603418,14.3811984 15.7403255,14.3101925 16.1163094,14.2231853 C16.3902977,14.16018 16.5732898,13.9931661 16.6262875,13.7071423 C16.640287,13.644137 16.6462867,13.5771314 16.6462867,13.5141262 C16.6462867,11.6989749 16.6462867,9.88382365 16.6442868,8.07067256 C16.6442868,8.00866739 16.6342872,7.94566214 16.6182879,7.88565714 C16.5782896,7.73564464 16.4682943,7.64263689 16.3143009,7.65163764 C16.1543078,7.66163847 15.9963145,7.68664055 15.8393213,7.71764314 C15.0793538,7.86765564 14.3193864,8.02066839 13.559419,8.17368114 L11.2335186,8.64372031 L9.85957751,8.92174348 C9.84357819,8.92474373 9.82757888,8.93174431 9.81157957,8.93474456 C9.53459143,9.01175098 9.43459572,9.13776148 9.42159628,9.4247854 C9.41959636,9.4667889 9.42159628,9.51079257 9.42159628,9.55479623 C9.41959636,12.1570131 9.42159628,14.7592299 9.41859641,17.3604467 C9.41859641,17.7804817 9.37159842,18.1965164 9.20360562,18.587549 C8.92561753,19.2276023 8.43363861,19.6276356 7.76966706,19.8206517 C7.41968206,19.9206601 7.05969749,19.9806651 6.69471313,19.9926661 C5.73475426,20.0286691 4.93978833,19.3926161 4.7747954,18.4485374 C4.63480139,17.6364697 5.00478554,16.7633969 5.92874595,16.3733644 C6.28573065,16.2233519 6.65871467,16.1413451 7.03669847,16.0633386 C7.32368617,16.0033336 7.61167383,15.9473289 7.89666162,15.8863239 C8.27964521,15.8033169 8.47963664,15.5632969 8.49663591,15.1722644 L8.49663591,15.0222519 C8.49663591,12.0620052 8.49663591,9.09975831 8.49863583,6.13951163 C8.49863583,6.01650138 8.51163527,5.88949079 8.54063403,5.76948079 C8.61063103,5.48445704 8.81362233,5.32144345 9.08661063,5.25143762 C9.3415997,5.18543212 9.60158856,5.13942829 9.86057747,5.08642387 C10.5935461,4.93641137 11.3265146,4.7903992 12.0604832,4.64238687 L14.3303859,4.18234853 C15.0003572,4.04833736 15.6703285,3.91232603 16.3402998,3.77931494 C16.5602904,3.73631136 16.7832808,3.69130761 17.0042714,3.67330611 C17.3142581,3.64830403 17.5272489,3.84332028 17.5582476,4.15534628 C17.5662473,4.22835236 17.5702471,4.30335861 17.5702471,4.37836486 C17.572247,6.28852404 17.572247,8.20068339 17.5702471,10.1108426 L17.5712471,10.1138428 Z"/>
</svg>
