<svg xmlns="http://www.w3.org/2000/svg" width="24" height="24" viewBox="0 0 24 24">
  <g fill="none" fill-rule="evenodd">
    <circle cx="12" cy="12" r="12" fill="#BA382C"/>
    <path fill="#FFF" d="M8.65549944,12.75 L12.7721942,16.7196699 C13.0759353,17.0125631 13.0759353,17.4874369 12.7721942,17.7803301 C12.468453,18.0732233 11.9759914,18.0732233 11.6722503,17.7803301 L6.22780584,12.5303301 C5.92406472,12.2374369 5.92406472,11.7625631 6.22780584,11.4696699 L11.6722503,6.21966991 C11.9759914,5.9267767 12.468453,5.9267767 12.7721942,6.21966991 C13.0759353,6.51256313 13.0759353,6.98743687 12.7721942,7.28033009 L8.65549944,11.25 L19.125,11.25 C19.6082492,11.25 20,11.5857864 20,12 C20,12.4142136 19.6082492,12.75 19.125,12.75 L8.65549944,12.75 Z"/>
  </g>
</svg>
