<svg xmlns="http://www.w3.org/2000/svg" xmlns:xlink="http://www.w3.org/1999/xlink" width="24" height="24" viewBox="0 0 24 24">
  <defs>
    <path id="calendar-a" d="M20.4,2.18181818 L18,2.18181818 L18,1.09090909 C18,0.436363636 17.52,0 16.8,0 C16.08,0 15.6,0.436363636 15.6,1.09090909 L15.6,2.18181818 L8.4,2.18181818 L8.4,1.09090909 C8.4,0.436363636 7.92,0 7.2,0 C6.48,0 6,0.436363636 6,1.09090909 L6,2.18181818 L3.6,2.18181818 C1.56,2.18181818 0,3.6 0,5.45454545 L0,20.7272727 C0,22.5818182 1.56,24 3.6,24 L20.4,24 C22.44,24 24,22.5818182 24,20.7272727 L24,5.45454545 C24,3.6 22.44,2.18181818 20.4,2.18181818 Z M3.6,4.36363636 L6,4.36363636 L6,5.45454545 C6,6.10909091 6.48,6.54545455 7.2,6.54545455 C7.92,6.54545455 8.4,6.10909091 8.4,5.45454545 L8.4,4.36363636 L15.6,4.36363636 L15.6,5.45454545 C15.6,6.10909091 16.08,6.54545455 16.8,6.54545455 C17.52,6.54545455 18,6.10909091 18,5.45454545 L18,4.36363636 L20.4,4.36363636 C21.12,4.36363636 21.6,4.8 21.6,5.45454545 L21.6,8.72727273 L2.4,8.72727273 L2.4,5.45454545 C2.4,4.8 2.88,4.36363636 3.6,4.36363636 Z M20.4,21.8181818 L3.6,21.8181818 C2.88,21.8181818 2.4,21.3818182 2.4,20.7272727 L2.4,10.9090909 L21.6,10.9090909 L21.6,20.7272727 C21.6,21.3818182 21.12,21.8181818 20.4,21.8181818 Z"/>
  </defs>
  <use fill="#BA382C" fill-rule="evenodd" xlink:href="#calendar-a"/>
</svg>
