<svg xmlns="http://www.w3.org/2000/svg" width="24" height="24" viewBox="0 0 24 24">
  <path fill="#BA382C" fill-rule="evenodd" d="M23.953002,4.32290321 C23.0680388,4.711887 22.1230782,4.97687596 21.1281197,5.09787092 C22.1420774,4.48689638 22.9220449,3.5239365 23.2910295,2.37498438 C22.3400692,2.92996125 21.2861131,3.33394442 20.1641598,3.55893504 C19.2681972,2.599975 17.9912504,2 16.5733094,2 C13.8564226,2 11.6535144,4.20290821 11.6535144,6.91679513 C11.6535144,7.30677888 11.6985126,7.68176326 11.7805091,8.0407483 C7.69067956,7.84775634 4.06583059,5.88383817 1.63993167,2.91496188 C1.21294946,3.63693179 0.973959418,4.47589684 0.973959418,5.38985876 C0.973959418,7.09978751 1.84392317,8.60272489 3.16186826,9.4856881 C2.35490188,9.45968918 1.5959335,9.23769843 0.933961085,8.86971376 L0.933961085,8.93071122 C0.933961085,11.3156118 2.62689055,13.304529 4.87979668,13.7575101 C4.46681388,13.8685055 4.03083205,13.928503 3.58385067,13.928503 C3.26986376,13.928503 2.9688763,13.8985042 2.66788884,13.8425066 C3.29886255,15.7954252 5.11278697,17.2193659 7.27169701,17.2593642 C5.59176701,18.5783092 3.46285571,19.3642765 1.16995125,19.3642765 C0.779967501,19.3642765 0.390983709,19.3412774 0,19.2972793 C2.1889088,20.6912212 4.76780134,21.5061872 7.55668514,21.5061872 C16.6103079,21.5061872 21.5551019,14.0104996 21.5551019,7.52076997 C21.5551019,7.31177868 21.5551019,7.10078747 21.5401025,6.89079622 C22.5010625,6.20182492 23.3400275,5.33086121 24,4.34290238 L23.953002,4.32290321 Z"/>
</svg>
