<svg xmlns="http://www.w3.org/2000/svg" width="162" height="48" viewBox="0 0 162 48">
  <g fill="none" fill-rule="evenodd">
    <path fill="#BA382C" d="M13.5587828,5.90041494 L6.72614108,5.90041494 C6.19132974,5.90041494 5.80866874,6.0110639 5.57814661,6.23236515 C5.34762448,6.45366639 5.23236515,6.81327552 5.23236515,7.31120332 L5.23236515,10.5753804 L12.5352697,10.5753804 L12.5352697,13.6459198 L5.23236515,13.6459198 L5.23236515,21.6680498 L1,21.6680498 L1,6.45366528 C1,5.23650844 1.382661,4.27294039 2.14799447,3.56293223 C2.91332794,2.85292407 3.93222047,2.49792531 5.20470263,2.49792531 C9.26189212,2.49792531 12.1203237,2.59935353 13.780083,2.802213 L13.5587828,5.90041494 Z M17.3485477,2 L19.1742739,2 C19.96727,2 20.3637621,2.39649212 20.3637621,3.18948824 L20.3637621,4.68326418 C20.3637621,5.4762603 19.96727,5.87275242 19.1742739,5.87275242 L17.3485477,5.87275242 C16.5555516,5.87275242 16.1590595,5.4762603 16.1590595,4.68326418 L16.1590595,3.18948824 C16.1590595,2.39649212 16.5555516,2 17.3485477,2 Z M20.3084371,21.6680498 L16.242047,21.6680498 L16.242047,8.03042877 L20.3084371,8.03042877 L20.3084371,21.6680498 Z M27.8603043,2.30428769 L27.8603043,17.2143845 C27.8603043,18.136473 28.3766661,18.5975104 29.4094053,18.5975104 L30.5159059,18.5975104 L30.9861687,21.4467497 C30.2853815,21.8155851 29.1973333,22 27.7219917,22 C26.5048349,22 25.5458772,21.6726635 24.8450899,21.0179806 C24.1443026,20.3632978 23.7939142,19.4366127 23.7939142,18.2378976 L23.7939142,2.30428769 L27.8603043,2.30428769 Z M36.0760719,8.03042877 L36.3526971,10.02213 C38.0862235,8.43613776 39.8197239,7.64315353 41.5532503,7.64315353 C43.3974274,7.64315353 44.5684622,8.38081328 45.06639,9.85615491 C46.6708241,8.38081328 48.3305585,7.64315353 50.0456432,7.64315353 C51.2812418,7.64315353 52.221758,7.96587967 52.8672199,8.61134163 C53.5126819,9.2568036 53.835408,10.1973198 53.835408,11.4329184 L53.835408,21.6680498 L49.769018,21.6680498 L49.769018,12.7053942 C49.769018,12.1152575 49.6675898,11.7003239 49.4647303,11.4605809 C49.2618708,11.2208379 48.8838202,11.1009682 48.3305671,11.1009682 C47.8879646,11.1009682 47.4638102,11.1839549 47.0580913,11.3499308 C46.6523723,11.5159068 46.0622445,11.8386329 45.2876902,12.3181189 L45.2876902,21.6680498 L41.3596127,21.6680498 L41.3596127,12.7053942 C41.3596127,12.1152575 41.2443534,11.7003239 41.0138313,11.4605809 C40.7833091,11.2208379 40.4098689,11.1009682 39.8934993,11.1009682 C39.1742703,11.1009682 38.1692089,11.4974603 36.8782849,12.2904564 L36.8782849,21.6680498 L32.8118949,21.6680498 L32.8118949,8.03042877 L36.0760719,8.03042877 Z M65.9515906,15.3609959 L65.9515906,21.6680498 L61.7192254,21.6680498 L61.7192254,15.3609959 L55.4121715,2.58091286 L59.8105118,2.58091286 L62.9917012,9.57952974 C63.1761189,9.98524869 63.4158584,10.7874537 63.7109267,11.9861687 L63.9875519,11.9861687 C64.2088531,10.9903131 64.4393718,10.1881082 64.6791148,9.57952974 L67.8603043,2.58091286 L72.2033195,2.58091286 L65.9515906,15.3609959 Z M82.604426,16.2185339 L77.6804979,16.2185339 C77.8095903,17.2143895 78.1092646,17.8828936 78.5795297,18.2240664 C79.0497949,18.5652391 79.828948,18.735823 80.9170124,18.735823 C82.3739123,18.735823 84.0705297,18.6343947 86.0069156,18.4315353 L86.3941909,20.9764869 C84.9741746,21.6588324 82.991714,22 80.4467497,22 C77.8833436,22 76.0576357,21.4467552 74.9695712,20.340249 C73.8815068,19.2337427 73.3374827,17.4080349 73.3374827,14.8630705 C73.3374827,12.1890138 73.8676757,10.3172022 74.9280775,9.24757953 C75.9884793,8.17795685 77.7726938,7.64315353 80.2807746,7.64315353 C82.5491123,7.64315353 84.1904053,8.03503527 85.2047026,8.81881051 C86.219,9.60258575 86.7353618,10.7966725 86.7538036,12.4011065 C86.7538036,13.6735887 86.4264671,14.627936 85.7717842,15.264177 C85.1171014,15.9004181 84.0613259,16.2185339 82.604426,16.2185339 Z M77.5975104,13.7565698 L81.4702628,13.7565698 C81.9681906,13.7565698 82.3047479,13.6367001 82.4799447,13.3969571 C82.6551415,13.1572141 82.7427386,12.8068257 82.7427386,12.3457815 C82.7427386,11.7003195 82.5767651,11.2531133 82.2448133,11.0041494 C81.9128614,10.7551855 81.3042921,10.6307054 80.4190871,10.6307054 C79.3679062,10.6307054 78.648688,10.8381722 78.2614108,11.253112 C77.8741336,11.6680519 77.6528357,12.5025295 77.5975104,13.7565698 Z M94.7206086,10.769018 L94.7206086,17.2143845 C94.7206086,17.7307541 94.8312575,18.0903632 95.0525588,18.2932227 C95.27386,18.4960822 95.6611314,18.5975104 96.2143845,18.5975104 L97.9571231,18.5975104 L98.3997234,21.4467497 C97.3485425,21.8155851 96.0668586,22 94.5546335,22 C93.3190349,22 92.3600772,21.654222 91.6777317,20.9626556 C90.9953862,20.2710892 90.6542185,19.3075212 90.6542185,18.0719225 L90.6542185,10.769018 L88.2475795,10.769018 L88.2475795,8.16874136 L90.6542185,8.03042877 L90.6542185,4.21300138 L94.7206086,4.21300138 L94.7206086,8.03042877 L98.5103734,8.03042877 L98.5103734,10.769018 L94.7206086,10.769018 Z M101.995851,2 L103.821577,2 C104.614573,2 105.011065,2.39649212 105.011065,3.18948824 L105.011065,4.68326418 C105.011065,5.4762603 104.614573,5.87275242 103.821577,5.87275242 L101.995851,5.87275242 C101.202854,5.87275242 100.806362,5.4762603 100.806362,4.68326418 L100.806362,3.18948824 C100.806362,2.39649212 101.202854,2 101.995851,2 Z M104.95574,21.6680498 L100.88935,21.6680498 L100.88935,8.03042877 L104.95574,8.03042877 L104.95574,21.6680498 Z" transform="translate(56 12)"/>
    <circle cx="24" cy="24" r="24" fill="#BA382C"/>
    <path fill="#FCFCFC" d="M11.988,22.452 C11.988,22.452 12.42,18.36 11.076,17.82 C9.732,17.292 12.828,18.168 12.828,18.168 C12.828,18.168 10.62,15.588 11.256,15.012 C11.904,14.448 12.756,17.184 13.212,16.2 C13.668,15.216 12.66,11.904 12.924,11.964 C13.188,12.012 13.38,15.108 14.568,15.348 C15.756,15.588 13.356,13.068 20.916,10.596 C28.476,8.124 24.996,3.792 24.996,3.792 C24.996,3.792 28.332,4.56 26.16,9.276 C23.988,13.992 30.84,9.72 30.528,7.512 C30.216,5.304 32.52,11.016 31.092,12.288 C29.664,13.56 33.048,11.064 33.048,11.064 C33.048,11.064 30.924,13.164 33.12,13.164 C35.316,13.164 32.82,14.664 32.82,14.664 C32.82,14.664 35.436,14.856 35.508,14.016 C35.58,13.176 36.684,15.024 34.488,15.804 C32.292,16.596 35.7,17.784 36.444,16.5 C36.876,15.756 37.296,23.076 35.712,27.252 C34.476,30.504 35.772,32.472 35.544,32.916 C35.004,33.96 29.004,38.82 29.148,40.74 C29.28,42.66 17.544,36.816 14.52,37.332 C11.496,37.848 12.552,32.04 10.404,28.092 C8.256,24.144 9.876,21.672 9.876,21.672 C9.876,21.672 10.716,23.712 11.988,22.452 Z"/>
    <path fill="#DAE1EA" d="M16.98,20.184 L16.98,20.16 C17.016,19.98 17.388,18.048 17.172,17.58 C16.956,17.1 17.748,19.752 18.432,19.14 C19.116,18.528 20.076,17.148 20.124,17.532 C20.172,17.916 20.328,19.632 20.904,18.996 C21.468,18.36 21.744,17.28 22.176,17.616 C22.512,17.868 22.548,19.044 22.548,19.596 C22.548,19.668 22.644,19.68 22.668,19.62 L23.664,17.556 C23.7,17.496 23.784,17.52 23.784,17.592 C23.748,18.144 23.772,19.2 24.372,19.176 C25.188,19.152 28.392,16.848 28.392,17.22 C28.392,17.592 28.236,19.26 28.728,18.972 C29.22,18.696 30.48,17.688 30.36,18.288 C30.24,18.888 29.34,19.308 29.64,20.04 C29.892,20.664 30.996,21.012 31.296,21.096 C31.332,21.108 31.356,21.156 31.332,21.18 C31.08,21.672 29.628,24.648 30.732,26.868 C31.944,29.292 33.24,31.128 31.764,33.528 C30.288,35.928 21.492,37.752 16.44,34.5 C11.388,31.248 16.2,27.936 16.8,24.924 C17.004,23.88 16.644,21.996 17.148,21.264 C17.496,20.748 17.532,20.844 17.508,20.508 C17.46,20.04 16.992,20.244 16.98,20.184 Z"/>
    <path stroke="#A5A5A5" d="M25.0348236,33.9923215 C24.6504091,33.6698426 24.169891,33.5086032 23.6893729,33.569068 C23.1367771,33.6295328 22.668272,33.9117018 22.416,34.0729412"/>
    <path fill="#898989" d="M17.472,27.804 C17.472,27.804 16.092,30.552 22.116,31.968 C28.14,33.384 30.036,29.772 30.036,28.668 C30.036,27.576 21.924,31.056 17.472,27.804 Z"/>
    <path fill="#FAFAFA" d="M27.936 31.512L27.936 30.612 26.196 31.212 26.508 32.076C26.508 32.076 26.94 31.968 27.324 31.812 27.708 31.656 27.936 31.512 27.936 31.512zM18.468 30.456L18.852 29.64 20.304 30.468 19.932 31.284C19.932 31.284 19.488 31.092 19.092 30.876 18.72 30.66 18.468 30.456 18.468 30.456z"/>
    <path fill="#000" d="M31.188,22.248 C31.188,22.248 31.74,21.9 31.548,21.324 C31.368,20.76 31.248,20.604 31.248,20.604 C31.248,20.604 26.496,20.46 25.44,21.168 C24.396,21.876 23.268,22.272 23.268,22.272 L23.2076488,23.8593319 C23.2076488,23.8593319 24.108,23.988 24.348,24.504 C24.588,25.02 25.188,26.292 25.872,26.556 C26.556,26.82 28.884,26.988 30.264,26.1 C31.644,25.212 31.188,22.248 31.188,22.248 Z"/>
    <path fill="#3A3C41" stroke="#000" d="M30.192,21.492 C30.192,21.492 30.768,22.272 30.768,23.196 C30.768,24.12 30.924,25.152 29.808,25.836 C28.692,26.532 26.448,26.556 25.752,26.028 C25.068,25.512 24.516,24.324 24.516,24.144 C24.516,23.952 24.732,21.972 26.208,21.504 C27.684,21.036 29.652,21.3 30.192,21.492 Z"/>
    <path fill="#BA382C" d="M25.752,22.38 C25.752,22.38 26.1,23.28 26.16,23.616 C26.22,23.952 26.808,23.028 26.928,23.196 C27.048,23.364 27.288,24.324 27.588,24.276 C27.9,24.228 28.164,23.592 28.26,23.82 C28.368,24.048 28.716,24.888 28.884,24.864 C29.052,24.84 28.692,23.46 28.392,23.364 C28.092,23.268 27.744,23.964 27.552,23.88 C27.36,23.796 27.096,22.752 26.964,22.788 C26.832,22.812 26.436,23.292 26.316,23.208 C26.196,23.124 25.884,22.008 25.86,22.152 C25.836,22.296 25.752,22.38 25.752,22.38 Z"/>
    <path fill="#FAFAFA" d="M30.5840472,21.5709679 C30.5008534,21.5543154 30.4342984,21.4543999 30.4675759,21.371137 L30.5341309,21.0547381 C30.5507697,20.9714752 30.6506022,20.9048649 30.7337959,20.9381701 C30.8169897,20.9548227 30.8835447,21.0547381 30.8502672,21.138001 L30.7837122,21.4543999 C30.7504347,21.5376628 30.6672409,21.6042731 30.5840472,21.5709679 Z" transform="matrix(-1 0 0 1 61.624 0)"/>
    <path fill="#0E0E0F" d="M15.348,22.716 C15.348,22.716 14.784,22.392 14.928,21.816 C15.072,21.24 15.192,21.084 15.192,21.084 C15.192,21.084 19.932,20.652 21.024,21.3 C22.116,21.948 23.268,22.272 23.268,22.272 L23.3294112,23.8606244 C23.3294112,23.8606244 22.536,24.036 22.32,24.564 C22.116,25.092 21.6,26.4 20.916,26.712 C20.232,27.024 17.928,27.324 16.512,26.52 C15.096,25.716 15.348,22.716 15.348,22.716 Z"/>
    <path fill="#3A3C41" stroke="#000" d="M16.296,21.888 C16.296,21.888 15.768,22.704 15.828,23.628 C15.888,24.552 15.78,25.584 16.944,26.208 C18.096,26.832 20.352,26.712 21,26.16 C21.66,25.596 22.128,24.384 22.128,24.204 C22.128,24.012 21.78,22.056 20.28,21.672 C18.768,21.288 16.824,21.672 16.296,21.888 Z"/>
    <path fill="#BA382C" d="M17.16,22.272 C17.16,22.272 17.568,23.232 17.568,23.46 C17.568,23.688 18.06,22.932 18.168,23.064 C18.276,23.196 18.384,24.252 18.624,24.264 C18.864,24.276 19.056,23.532 19.212,23.856 C19.368,24.18 19.584,25.08 19.632,25.416 C19.68,25.752 19.908,24.96 19.98,25.068 C20.052,25.176 19.428,23.292 19.308,23.328 C19.176,23.364 18.816,23.916 18.756,23.772 C18.696,23.628 18.36,22.476 18.228,22.5 C18.096,22.524 17.844,23.16 17.748,23.04 C17.652,22.92 17.28,21.78 17.28,21.9 C17.28,22.02 17.16,22.272 17.16,22.272 Z"/>
    <path fill="#FAFAFA" d="M15.310911,22.0672449 C15.2277173,22.0505923 15.1611623,21.9506769 15.1944398,21.867414 L15.2609948,21.5510151 C15.2776335,21.4677522 15.377466,21.4011419 15.4606598,21.4344471 C15.5438535,21.4510996 15.6104085,21.5510151 15.577131,21.634278 L15.510576,21.9506769 C15.4772985,22.0339398 15.3941048,22.1005501 15.310911,22.0672449 Z"/>
  </g>
</svg>
