<svg xmlns="http://www.w3.org/2000/svg" width="382" height="37" viewBox="0 0 382 37">
  <g fill="#FFF" fill-rule="evenodd">
    <path d="M368.296296 8.67732624L371.259259 8.67732624C371.259259 9.33229701 371.259259 10.5603671 371.259259 12.3615368 371.259259 12.710065 373.111111 8.67732624 376.444444 7.94048414 378.666667 7.44925604 380.518519 7.81767709 382 9.04574729L382 13.7299578C380.765432 11.5896069 378.91358 10.7650455 376.444444 11.2562736 373.975309 11.7475017 372.246913 14.5720631 371.259259 19.7299578L368.296296 19.7299578 368.296296 8.67732624zM344.37037 18.4141683C344.3263 16.5729552 344.555556 8.09837886 352.333333 8.09837886 357.518519 8.09837886 360.172839 11.5369754 360.296296 18.4141683L357.333333 18.4141683C357.333333 13.5018876 355.666667 11.0457473 352.333333 11.0457473 347.703704 11.0457473 347.333333 16.203642 347.333333 18.4141683 347.333333 22.0983789 348.938272 24.5545192 352.148148 25.7825894L352.148148 28.7299578C347.08642 27.0106596 344.493827 23.5720631 344.37037 18.4141683zM325.481481 8.67732624L328.444444 8.67732624C328.444444 9.33229701 328.444444 10.5603671 328.444444 12.3615368 328.444444 12.710065 330.296296 8.67732624 333.62963 7.94048414 335.851852 7.44925604 337.703704 7.81767709 339.185185 9.04574729L339.185185 13.7299578C337.950617 11.5896069 336.098765 10.7650455 333.62963 11.2562736 331.160494 11.7475017 329.432099 14.5720631 328.444444 19.7299578L325.481481 19.7299578 325.481481 8.67732624zM304 8.67732624L306.962963 8.67732624C306.962963 9.33229701 306.962963 10.5603671 306.962963 12.3615368 306.962963 12.710065 308.814815 8.67732624 312.148148 7.94048414 314.37037 7.44925604 316.222222 7.81767709 317.703704 9.04574729L317.703704 13.7299578C316.469136 11.5896069 314.617284 10.7650455 312.148148 11.2562736 309.679013 11.7475017 307.950617 14.5720631 306.962963 19.7299578L304 19.7299578 304 8.67732624z"/>
    <polygon points="286.2 11.214 282 11.214 282 8.73 289 8.73 289 19.73 286.2 19.73"/>
    <path d="M285.992993,1.72995781 L288.246695,1.72995781 C288.662734,1.72995781 289,2.05556893 289,2.45723053 C289,2.47921242 288.998968,2.50118304 288.996906,2.52307468 L288.757219,5.06852922 C288.721945,5.44313228 288.396619,5.72995781 288.007007,5.72995781 L285.753305,5.72995781 C285.337266,5.72995781 285,5.40434668 285,5.00268508 C285,4.98070319 285.001032,4.95873257 285.003094,4.93684093 L285.242781,2.39138639 C285.278055,2.01678333 285.603381,1.72995781 285.992993,1.72995781 Z"/>
    <polygon points="257 2.73 260.273 2.73 261.727 2.73 266.224 15.648 270.455 2.73 273 2.73 267.545 19.444 265 19.444 260.273 5.701 260.273 28.73 257 28.73"/>
    <path d="M229.010101 9.10329114L232 9.10329114 232 20.3032911 232 27.3966245C231.750842 33.6188467 229.259259 36.7299578 224.525253 36.7299578 221.784512 36.7299578 219.666667 36.23218 218.171717 35.2366245L218.171717 32.2499578C225.397307 35.2366245 229.010101 33.6188467 229.010101 27.3966245 229.010101 26.15218 229.010101 23.7877356 229.010101 20.3032911 229.010101 14.8277356 227.141414 12.0899578 223.40404 12.0899578 220.414141 12.0899578 219.043771 14.8277356 219.292929 20.3032911L215.929293 20.3032911C215.929293 12.5877356 218.420875 8.72995781 223.40404 8.72995781 225.646465 8.72995781 227.390572 9.60106894 228.636364 11.3432911L229.010101 9.10329114zM195 9.10329114L197.989899 9.10329114 197.989899 12.4632911C199.484848 9.97440228 201.478115 8.72995781 203.969697 8.72995781 205.638719 8.72995781 209.949495 9.10329114 209.949495 17.6899578 209.949495 18.9386064 209.949495 22.6719397 209.949495 28.8899578L206.585859 28.8899578 206.585859 17.6899578C206.585859 13.4588467 205.340067 11.4677356 202.848485 11.7166245 199.111111 12.0899578 197.989899 15.4499578 197.989899 16.9432911 197.989899 17.9388467 197.989899 18.0725843 197.989899 17.3445039L195 17.3445039 195 9.10329114z"/>
    <polygon points="179.2 11.214 175 11.214 175 8.73 182 8.73 182 19.73 179.2 19.73"/>
    <path d="M179.045505.729957806L181.25985.729957806C181.668624.729957806 182 1.06424451 182 1.47660797 182 1.49917555 181.998986 1.52173155 181.99696 1.54420647L181.761459 4.15748205C181.7268 4.54206602 181.407156 4.83653372 181.024348 4.83653372L178.810003 4.83653372C178.401229 4.83653372 178.069853 4.50224701 178.069853 4.08988355 178.069853 4.06731597 178.070867 4.04475997 178.072893 4.02228505L178.308395 1.40900948C178.343053 1.02442551 178.662697.729957806 179.045505.729957806zM152.464345 23.686382C153.850375 24.4504348 154.9606 24.9482016 155.795019 25.1796824 156.629439 25.4111631 157.986381 25.5356048 159.865844 25.5530074L159.865844 28.5396081C158.68457 28.5501618 157.450986 28.4257201 156.165094 28.166283 154.879202 27.9068459 153.645619 27.5335208 152.464345 27.0463078L152.464345 23.686382zM165.416967 8.75337872L165.416967 12.1133045C163.689951 11.3666543 161.716218 10.9933292 159.495769 10.9933292 155.795019 10.9933292 153.934643 14.72658 159.120693 16.2198804 162.578059 17.2154139 164.800176 18.3353892 165.787042 19.5798061L159.865844 19.5798061C154.931511 17.8376224 152.464345 15.8781771 152.464345 13.7014702 152.464345 11.3666543 153.870633 8.98927314 156.908743 8.16393956 159.12686 7.5613654 161.962935 7.75784512 165.416967 8.75337872zM131 23.8761129C132.38603 24.6401657 133.496255 25.1379325 134.330674 25.3694133 135.165094 25.600894 136.522036 25.7253357 138.401498 25.7427383L138.401498 28.729339C137.220224 28.7398927 135.986641 28.615451 134.700749 28.3560139 133.414857 28.0965768 132.181274 27.7232517 131 27.2360387L131 23.8761129zM143.952622 8.94310962L143.952622 12.3030354C142.225606 11.5563852 140.251873 11.1830601 138.031423 11.1830601 134.330674 11.1830601 132.470297 14.9163109 137.656347 16.4096113 141.113714 17.4051448 143.335831 18.5251201 144.322697 19.769537L138.401498 19.769537C133.467166 18.0273533 131 16.067908 131 13.8912012 131 11.5563852 132.406288 9.17900404 135.444398 8.35367046 137.662515 7.75109637 140.498589 7.9475761 143.952622 8.94310962z"/>
    <polygon points="115.2 11.214 111 11.214 111 8.73 118 8.73 118 19.73 115.2 19.73"/>
    <path d="M115.992993,1.72995781 L118.246695,1.72995781 C118.662734,1.72995781 119,2.05556893 119,2.45723053 C119,2.47921242 118.998968,2.50118304 118.996906,2.52307468 L118.757219,5.06852922 C118.721945,5.44313228 118.396619,5.72995781 118.007007,5.72995781 L115.753305,5.72995781 C115.337266,5.72995781 115,5.40434668 115,5.00268508 C115,4.98070319 115.001032,4.95873257 115.003094,4.93684093 L115.242781,2.39138639 C115.278055,2.01678333 115.603381,1.72995781 115.992993,1.72995781 Z"/>
    <polygon points="87 2.73 90.611 2.73 90.611 13.501 100 13.501 100 16.473 90.611 16.473 90.611 28.73 87 28.73"/>
    <path d="M45.5148515 18.2766245C45.8811881 11.3077356 48.6287129 7.82329114 53.7574257 7.82329114 58.8861386 7.82329114 61.6336634 11.3077356 62 18.2766245L58.7029703 18.2766245 53.7574257 18.2766245 53.7574257 15.695133C56.9499367 15.7969061 58.538228 15.7969061 58.5222989 15.695133 58.012573 12.4383495 56.4242817 10.8099578 53.7574257 10.8099578 50.460396 10.8099578 48.8118812 13.2988467 48.8118812 18.2766245L53.5742574 25.7432911 53.5742574 28.7299578 45.5148515 18.2766245zM25 .729957806L27.9306931.729957806 27.9306931 11.5566245C29.3960396 9.06773561 31.349835 7.82329114 33.7920792 7.82329114 35.4280513 7.82329114 39.6534653 8.19662447 39.6534653 16.7832911 39.6534653 18.0319397 39.6534653 21.765273 39.6534653 27.9832911L36.3564356 27.9832911 36.3564356 16.7832911C36.3564356 12.55218 35.1353135 10.5610689 32.6930693 10.8099578 29.029703 11.1832911 27.9306931 14.5432911 27.9306931 16.0366245 27.9306931 17.03218 27.9306931 17.1659176 27.9306931 16.4378372L25 16.4378372 25 .729957806z"/>
    <polygon points="8.148 5.65 0 5.65 0 2.73 20 2.73 20 5.65 11.481 5.65 11.481 16.73 8.148 16.73"/>
  </g>
</svg>
