<svg xmlns="http://www.w3.org/2000/svg" width="180" height="20" viewBox="0 0 180 20">
  <g fill="#BA382C" fill-rule="evenodd">
    <polygon points="159.848 20 159.848 0 161.695 0 178.002 17.273 178.002 0 179.848 0 179.848 20 178.002 20 161.695 2.424 161.695 20"/>
    <path d="M127.848485,1.84615318 C127.848485,1.38461488 130.329105,4.03763394e-13 132.344609,1.82137562e-13 C134.360113,-3.85211611e-14 141.646934,-6.80556414e-14 143.5074,1.45207739e-13 C145.367865,3.59391065e-13 147.848485,1.84615318 147.848485,2.15384537 C147.848485,2.46153757 147.848485,17.6923013 147.848485,18 C147.848485,18.3076857 145.367865,19.9999927 143.5074,19.9999927 C141.646934,19.9999927 134.024225,19.9959391 132.344609,19.9999927 C130.664993,20.0040464 127.848485,18.3076857 127.848485,18 C127.848485,17.6923013 127.848485,2.30769147 127.848485,1.84615318 Z M129.694639,3.32867023 C129.694639,3.70629234 129.694639,16.2936958 129.694639,16.5454439 C129.694639,16.7971919 131.052593,18.1851289 132.422126,18.1818122 C133.791659,18.1784956 142.067926,18.1818122 143.584921,18.1818122 C145.101916,18.1818122 146.002331,16.7971919 146.002331,16.5454439 C146.002331,16.2936958 146.002331,3.83216637 146.002331,3.5804183 C146.002331,3.32867023 145.101916,1.81818182 143.584921,1.81818182 C142.067926,1.81818182 134.065537,1.81818182 132.422126,1.81818182 C130.778715,1.81818182 129.694639,2.95104813 129.694639,3.32867023 Z"/>
    <polygon points="95.848 0 97.709 0 105.616 10 106.236 10 114.298 0 115.848 0 106.856 11.538 106.856 20 104.996 20 104.996 11.538"/>
    <path d="M84.8484848,2.15384615 C83.1947381,0.717948718 81.7993892,2.52980507e-15 80.6624383,7.58941521e-15 C78.957012,1.53718841e-14 70.4298802,1.49697962e-13 68.7244538,1.49697962e-13 C67.0190275,1.49697962e-13 64.8484848,1.53846154 64.8484848,1.84615385 C64.8484848,2.15384615 64.8484848,17.6923077 64.8484848,18 C64.8484848,18.3076923 67.6391825,20 69.1895701,20 C70.112156,20 78.957012,20 80.6624383,20 C82.3678647,20 84.8484848,18.3076923 84.8484848,18 C84.8484848,17.7948718 84.8484848,14.5641026 84.8484848,8.30769231 L77.5616631,8.30769231 L77.5616631,10.1538462 L82.9880197,10.1538462 C82.9880197,14.2564103 82.9880197,16.4102564 82.9880197,16.6153846 C82.9880197,16.9230769 81.7477097,18.3076923 80.6624383,18.3076923 C79.577167,18.3076923 70.1198027,18.3076923 69.1895701,18.3076923 C68.2593376,18.3076923 66.70895,17.0769231 66.70895,16.6153846 C66.70895,16.1538462 66.70895,3.84615385 66.70895,3.53846154 C66.70895,3.23076923 67.7942213,2 69.1895701,2 C70.584919,2 80.1973221,2 80.5073996,2 C80.8174771,2 82.9880197,2.61538462 82.9880197,5.07692308 C82.9880197,5.38461538 83.6081748,4.41025641 84.8484848,2.15384615 Z"/>
    <polygon points="32.848 20 41.996 0 43.856 0 52.848 20 50.988 20 43.081 2.748 42.771 2.748 34.709 20"/>
    <polygon points=".848 20 .848 0 2.411 0 10.536 9.771 11.161 9.771 19.286 0 20.848 0 20.848 20 19.286 20 19.286 2.137 11.786 11.756 9.911 11.756 2.411 2.137 2.411 20"/>
  </g>
</svg>
