<svg height="700pt" preserveAspectRatio="xMidYMid meet" viewBox="0 0 700 700" width="700pt" xmlns="http://www.w3.org/2000/svg"><path d="m0 3500v-3500h3500 3500v3500 3500h-3500-3500zm2492 1198c112-52 193-158 218-285 40-202-106-405-318-443-161-29-332 61-407 214-37 76-46 198-21 278 36 113 131 211 240 250 76 28 212 21 288-14zm1170 0c190-87 273-319 185-512-70-153-245-245-409-216-192 35-319 187-319 380-1 166 98 306 254 362 78 28 213 21 289-14zm1171-2c74-35 147-109 184-183 25-53 28-68 28-163 0-96-3-110-29-165-76-154-246-244-408-215-212 39-358 241-318 443 29 147 125 258 263 303 27 9 75 13 132 11 74-3 100-8 148-31zm197-966c19-19 20-33 20-295s-1-276-20-295c-20-20-33-20-1530-20s-1510 0-1530 20c-19 19-20 33-20 295s1 276 20 295c20 20 33 20 1530 20s1510 0 1530-20zm-1-914c20-19 21-27 21-294 0-242-2-278-17-294-15-17-76-18-1531-18-1396 0-1517 1-1534 17-17 15-18 37-18 293 0 251 2 278 18 292 9 9 24 18 32 21s688 5 1511 4c1457-2 1497-3 1518-21z" transform="matrix(.1 0 0 -.1 0 700)"/></svg>